<svg xmlns="http://www.w3.org/2000/svg" width="720" height="720" viewBox="0 0 720 720" role="img" aria-labelledby="title desc">
  <title id="title">Vibe Coding 101 by Hunter Ho for Krenovator</title>
  <desc id="desc">Krenovator poster for the Vibe Coding 101 online class with Hunter Ho.</desc>
  <defs>
    <linearGradient id="bg" x1="0%" y1="0%" x2="100%" y2="100%">
      <stop offset="0%" stop-color="#3f58b8"/>
      <stop offset="55%" stop-color="#5868df"/>
      <stop offset="100%" stop-color="#d38fda"/>
    </linearGradient>
    <linearGradient id="panel" x1="0%" y1="0%" x2="100%" y2="100%">
      <stop offset="0%" stop-color="#483fd2"/>
      <stop offset="100%" stop-color="#5b37a4"/>
    </linearGradient>
    <filter id="shadow" x="-20%" y="-20%" width="140%" height="140%">
      <feDropShadow dx="0" dy="10" stdDeviation="16" flood-color="#101528" flood-opacity="0.32"/>
    </filter>
    <clipPath id="portraitClip">
      <rect x="16" y="338" width="346" height="260" rx="0"/>
    </clipPath>
  </defs>
  <rect width="720" height="720" fill="url(#bg)"/>
  <circle cx="76" cy="462" r="72" fill="#c5d66e" opacity="0.42"/>
  <circle cx="596" cy="548" r="10" fill="#f7f0d0" opacity="0.92"/>
  <circle cx="88" cy="274" r="12" fill="#f7f0d0" opacity="0.82"/>
  <circle cx="490" cy="88" r="10" fill="#f7f0d0" opacity="0.82"/>
  <g transform="translate(84 86)" stroke="#ffefb0" stroke-width="6" stroke-linecap="round">
    <circle cx="0" cy="0" r="34" fill="#ffc928" stroke="#121212"/>
    <path d="M-10 -14c0-10 8-18 18-18s18 8 18 18c0 8-4 12-8 16-4 4-5 8-5 14h-10c0-6-2-10-6-14-4-4-7-8-7-16z" fill="#ffc928" stroke="#121212"/>
    <path d="M-24 -36l-8 -12M24 -36l8 -12M-42 -6l-14 -2M42 -6l14 -2M-30 28l-10 10M30 28l10 10"/>
  </g>
  <text x="360" y="62" text-anchor="middle" fill="#f5f7ff" font-size="18" font-family="Arial, Helvetica, sans-serif" font-weight="700" letter-spacing="4">KRENOVATOR</text>
  <rect x="72" y="110" width="588" height="110" rx="22" fill="#1f1d1b" stroke="#f2e9cf" stroke-width="2"/>
  <text x="360" y="186" text-anchor="middle" fill="#ffffff" font-size="44" font-family="Arial, Helvetica, sans-serif" font-weight="900">VIBE CODING 101</text>
  <g transform="translate(556 160) rotate(-12)">
    <rect x="-96" y="-34" width="190" height="68" rx="34" fill="#2d0d5a" stroke="#e8ddff" stroke-width="3"/>
    <text x="0" y="10" text-anchor="middle" fill="#ffffff" font-size="24" font-family="Arial, Helvetica, sans-serif" font-weight="900" letter-spacing="1">100% ONLINE</text>
  </g>
  <rect x="288" y="264" width="356" height="178" rx="22" fill="url(#panel)" opacity="0.96"/>
  <g fill="#ffffff" font-family="Arial, Helvetica, sans-serif">
    <text x="340" y="322" font-size="16">14 APR TO 23 APR 2026</text>
    <text x="340" y="372" font-size="16">8:30PM - 10PM</text>
    <text x="340" y="400" font-size="16">TUES &amp; THURS</text>
    <text x="340" y="448" font-size="16">KRENOVATOR DIGITAL TRIBE</text>
  </g>
  <g stroke="#ffffff" stroke-width="4" fill="none" stroke-linecap="round" stroke-linejoin="round">
    <rect x="308" y="298" width="26" height="24" rx="4"/>
    <path d="M315 290v12M327 290v12M308 308h26"/>
    <circle cx="321" cy="365" r="13"/>
    <path d="M321 356v11l8 5"/>
    <circle cx="321" cy="438" r="13"/>
    <path d="M313 434h16M313 442h16"/>
  </g>
  <image href="../founder-portrait.jpeg" x="12" y="334" width="348" height="286" preserveAspectRatio="xMidYMid slice" clip-path="url(#portraitClip)" filter="url(#shadow)"/>
  <rect x="18" y="338" width="344" height="260" fill="none" stroke="#0f1227" stroke-width="2" opacity="0.28"/>
  <text x="364" y="532" fill="#ffffff" font-size="28" font-family="Arial, Helvetica, sans-serif" font-weight="900">Hunter Ho</text>
  <text x="364" y="569" fill="#ffffff" font-size="24" font-family="Arial, Helvetica, sans-serif">Professional</text>
  <text x="364" y="602" fill="#ffffff" font-size="24" font-family="Arial, Helvetica, sans-serif">Fullstack Developer</text>
  <rect x="184" y="620" width="352" height="42" rx="8" fill="#1d1c1a" stroke="#b6e33b" stroke-width="2"/>
  <text x="360" y="648" text-anchor="middle" fill="#b6e33b" font-size="18" font-family="Courier New, monospace" font-weight="700">krenovator.io</text>
</svg>
